<?xml version="1.0" encoding="UTF-8"?>
<svg version="1.1" xmlns="http://www.w3.org/2000/svg" width="736" height="736">
<path d="M0 0 C242.88 0 485.76 0 736 0 C736 242.88 736 485.76 736 736 C493.12 736 250.24 736 0 736 C0 493.12 0 250.24 0 0 Z " fill="#000000" transform="translate(0,0)"/>
<path d="M0 0 C1.11510956 -0.00160126 1.11510956 -0.00160126 2.25274658 -0.00323486 C19.016685 0.03142462 33.77800388 2.63970828 48.3125 11.4375 C49.04597656 11.87578125 49.77945312 12.3140625 50.53515625 12.765625 C61.0473985 19.8142961 66.8573317 31.5435382 69.8359375 43.546875 C70.14874093 45.52514537 70.24710353 47.43564127 70.3125 49.4375 C70.44011719 50.76587891 70.44011719 50.76587891 70.5703125 52.12109375 C71.04761915 60.59847482 69.49889238 68.32297942 67.625 76.5625 C67.38128662 77.64644043 67.13757324 78.73038086 66.88647461 79.84716797 C65.07339997 87.40517601 62.50012609 94.35717927 59.3125 101.4375 C58.95003174 102.25573242 58.58756348 103.07396484 58.21411133 103.91699219 C47.59121032 127.57652436 33.39394369 148.8670004 16.74365234 168.71826172 C14.7487656 171.11471216 12.81798428 173.56139311 10.875 176 C1.44415478 187.46262516 -9.09229705 197.93514272 -19.5625 208.4375 C-20.05445862 208.93213745 -20.54641724 209.4267749 -21.05328369 209.93640137 C-26.75077804 215.65743024 -32.53050877 221.21014935 -38.6875 226.4375 C-39.80559058 227.41042147 -40.92280806 228.38434742 -42.0390625 229.359375 C-58.14299562 243.30865926 -75.06515456 256.45645417 -92.6875 268.4375 C-94.2034375 269.48550781 -94.2034375 269.48550781 -95.75 270.5546875 C-119.68730015 286.93935674 -145.17174937 301.34017279 -171.52832031 313.43798828 C-173.59899181 314.39652843 -175.65645003 315.37841339 -177.7109375 316.37109375 C-184.69899885 319.73390367 -191.72652415 322.69005052 -199.07421875 325.19921875 C-201.52729106 326.03989326 -203.96745986 326.91900229 -206.39453125 327.83203125 C-231.57623942 337.28264857 -257.09341398 342.60421574 -283.9375 342.875 C-284.64939484 342.88739716 -285.36128967 342.89979431 -286.09475708 342.91256714 C-304.88045501 343.18396702 -322.59782118 338.95019547 -336.59277344 325.7434082 C-346.53990076 315.84777736 -350.83167944 303.93196991 -350.95556641 290.03442383 C-350.92947667 285.83291844 -350.84232381 281.63620272 -350.6875 277.4375 C-350.3575 277.4375 -350.0275 277.4375 -349.6875 277.4375 C-349.60113281 278.09234375 -349.51476562 278.7471875 -349.42578125 279.421875 C-347.53190047 291.72341255 -343.47598415 302.2009112 -333.58984375 310.1171875 C-320.9388946 319.08664351 -307.78822574 320.8303936 -292.625 320.75 C-291.58795929 320.74776428 -291.58795929 320.74776428 -290.52996826 320.7454834 C-280.25172664 320.70557946 -270.70063586 320.00554834 -260.6875 317.4375 C-259.51058594 317.20546875 -258.33367187 316.9734375 -257.12109375 316.734375 C-246.87400815 314.62498503 -236.98764517 311.39096006 -227.0625 308.125 C-226.36593292 307.8986084 -225.66936584 307.6722168 -224.95169067 307.43896484 C-214.81146307 304.12855204 -205.27455574 300.10033772 -195.6875 295.4375 C-193.64728409 294.48386921 -191.6056968 293.53316474 -189.5625 292.5859375 C-167.93406749 282.42331108 -147.50318672 270.78610441 -127.6875 257.4375 C-126.78862061 256.83542725 -126.78862061 256.83542725 -125.87158203 256.22119141 C-90.84060599 232.68394396 -55.97819461 204.83419553 -28.6875 172.4375 C-27.80225524 171.4257917 -26.91538032 170.41550865 -26.02734375 169.40625 C-13.43406002 155.02902134 -2.5083003 139.83368381 7.3125 123.4375 C7.80169922 122.62764648 8.29089844 121.81779297 8.79492188 120.98339844 C15.76796851 109.31998246 20.87208835 97.67093905 24.66967773 84.61547852 C25.21998593 82.75095157 25.84137791 80.90765852 26.4765625 79.0703125 C27.66479298 73.90650712 27.64135126 68.90645856 27.625 63.625 C27.64111328 62.59568359 27.65722656 61.56636719 27.67382812 60.50585938 C27.68134583 48.62037192 24.61650774 39.30831545 16.53125 30.49609375 C3.69286824 18.31541598 -14.61724634 15.82456963 -31.57250977 16.03979492 C-88.24890972 17.65709505 -143.60267198 46.51983057 -189.6875 77.4375 C-190.3475 77.1075 -191.0075 76.7775 -191.6875 76.4375 C-166.34599286 59.33851562 -166.34599286 59.33851562 -154.60253906 52.54882812 C-152.43319702 51.28992387 -150.27537261 50.01230656 -148.1171875 48.734375 C-121.87298786 33.26349499 -93.56209855 19.32036759 -64.06640625 11.39453125 C-61.47333163 10.66007659 -58.9594968 9.85934181 -56.4140625 8.984375 C-51.50464127 7.32895062 -46.53919569 6.06799853 -41.5 4.875 C-40.65630859 4.66681641 -39.81261719 4.45863281 -38.94335938 4.24414062 C-26.01005355 1.15833318 -13.24966621 -0.00407238 0 0 Z " fill="#FAFAFA" transform="translate(502.6875,194.5625)"/>
<path d="M0 0 C1.08539063 -0.01160156 2.17078125 -0.02320313 3.2890625 -0.03515625 C19.58509399 0.02318276 34.16725794 5.43351698 47 15.375 C48.2684375 16.31279297 48.2684375 16.31279297 49.5625 17.26953125 C56.25176397 23.0475974 60.46345089 32.05511894 63 40.375 C63 44.665 63 48.955 63 53.375 C49.8 53.375 36.6 53.375 23 53.375 C22.01 49.415 22.01 49.415 21 45.375 C18.67930035 42.95083999 18.67930035 42.95083999 16 41.375 C14.515 40.385 14.515 40.385 13 39.375 C4.67400594 37.14994986 -5.37649498 36.93128984 -13.08984375 41.0546875 C-17.15650402 43.86558969 -20.40235174 46.67400049 -21.50390625 51.65234375 C-21.70416022 55.53468684 -21.30393923 57.83726136 -19.375 61.25 C-14.03041343 66.03199851 -8.42783946 67.04170799 -1.5625 67.9375 C-0.67723633 68.06261963 0.20802734 68.18773926 1.12011719 68.31665039 C5.10270861 68.87434263 9.08873754 69.39243926 13.08203125 69.8671875 C29.92237433 71.911702 48.50885331 75.11556841 60.453125 88.3359375 C69.14685249 99.795851 69.21014101 113.58343476 68 127.375 C65.93282363 139.7807818 58.40590255 149.58591111 48.36328125 156.79296875 C47.19345703 157.57607422 47.19345703 157.57607422 46 158.375 C45.27167969 158.88675781 44.54335938 159.39851562 43.79296875 159.92578125 C26.6087175 170.66940845 3.57429694 173.16987515 -15.99951172 169.13549805 C-19.3811723 168.34649422 -22.67894665 167.39222765 -26 166.375 C-26.92941406 166.09785156 -27.85882813 165.82070313 -28.81640625 165.53515625 C-41.8279704 161.0030384 -53.32393384 151.45735926 -59.625 139.21875 C-63.09834353 131.24584782 -64 125.18195181 -64 116.375 C-50.47 116.375 -36.94 116.375 -23 116.375 C-22.01 119.015 -21.02 121.655 -20 124.375 C-15.3286536 129.30586564 -9.61908133 130.42158568 -3.07421875 130.7109375 C10.61652362 131.32632141 10.61652362 131.32632141 23 126.375 C25.88198861 123.21853629 26.88891941 121.48580587 27.3125 117.25 C27.209375 116.30125 27.10625 115.3525 27 114.375 C26.9071875 113.26125 26.9071875 113.26125 26.8125 112.125 C26.1230314 110.17154142 26.1230314 110.17154142 23.9375 109.3125 C22.4834375 108.8484375 22.4834375 108.8484375 21 108.375 C19.68670744 107.85616837 18.37426022 107.33519373 17.0625 106.8125 C11.80419118 104.7286117 6.61053841 104.30430197 0.98632812 104.13549805 C-18.41843413 103.50208932 -37.37320671 99.64732102 -51.1875 85.1875 C-60.31412612 74.4829896 -62.56368326 61.65559885 -62.30859375 47.92578125 C-61.1128519 34.167182 -54.45998684 22.38293405 -43.99609375 13.51171875 C-40.5025792 11.02025531 -36.93911528 8.95587504 -33.125 7 C-32.50181885 6.67813721 -31.8786377 6.35627441 -31.23657227 6.0246582 C-21.19372851 1.18684546 -11.04267809 -0.11803338 0 0 Z " fill="#FBFBFB" transform="translate(261,293.625)"/>
<path d="M0 0 C16 0 16 0 19.94140625 2.5625 C21.31665039 4.21508789 21.31665039 4.21508789 22.5625 6 C23.04388428 6.59868896 23.52526855 7.19737793 24.02124023 7.81420898 C24.96593376 8.99344271 25.89226154 10.18769613 26.796875 11.39794922 C28.285767 13.3805201 29.90422 15.22040123 31.5625 17.0625 C32.08972656 17.67222656 32.61695313 18.28195312 33.16015625 18.91015625 C35.56670156 21.64370559 38.03303196 24.32114006 40.5 27 C43.53890177 30.30026876 46.561561 33.60949347 49.5 37 C53.7452089 41.89209788 58.14704926 46.64047393 62.53417969 51.40478516 C64.01872299 53.02037576 65.4983456 54.64033902 66.9765625 56.26171875 C67.70504395 57.05980957 67.70504395 57.05980957 68.44824219 57.87402344 C69.79674101 59.35174187 71.1444875 60.83014674 72.4921875 62.30859375 C74.94077644 64.93644076 77.44472245 67.47677791 80 70 C88.21164064 61.14429177 88.21164064 61.14429177 96.3125 52.1875 C100.95497579 47.00184605 105.72600516 41.93928676 110.5090332 36.88354492 C113.56452129 33.64344009 116.56854703 30.37501929 119.48828125 27.01171875 C123.68262553 22.18151094 128.08221965 17.55403177 132.48242188 12.91210938 C133.10826172 12.24888672 133.73410156 11.58566406 134.37890625 10.90234375 C134.99443359 10.2570874 135.60996094 9.61183105 136.24414062 8.94702148 C138.02330324 7.03777756 138.02330324 7.03777756 139.50585938 4.96118164 C142.98656051 0.28176965 142.98656051 0.28176965 145.96606445 -0.54663086 C148.1466203 -0.68751441 150.19802882 -0.61661788 152.375 -0.4375 C153.11105469 -0.40591797 153.84710938 -0.37433594 154.60546875 -0.34179688 C156.40539312 -0.25998213 158.20323955 -0.13443695 160 0 C161.56020382 24.73523139 161.56020382 24.73523139 154.59765625 33.09765625 C153.74042969 34.05542969 152.88320313 35.01320313 152 36 C150.9859559 37.32235687 149.98553421 38.6552281 148.99609375 39.99609375 C142.08146259 49.35844735 134.72398286 58.29752156 127 67 C125.71416016 68.4540625 125.71416016 68.4540625 124.40234375 69.9375 C118.87824086 76.06983745 113.13451993 81.96395606 107.3125 87.8125 C106.61165283 88.51802002 105.91080566 89.22354004 105.1887207 89.95043945 C101.18311233 93.94379682 97.07623054 97.75884629 92.79272461 101.45239258 C90.53081558 103.40503337 88.32921105 105.42015113 86.125 107.4375 C72.1810567 120 72.1810567 120 69 120 C67.625 118.6015625 67.625 118.6015625 66 116.625 C62.33688354 112.30144745 58.38802672 108.34832841 54.33203125 104.39453125 C52.03948147 102.0405396 50.04458177 99.56904363 48 97 C46.67644884 95.65695574 45.34447141 94.32210142 44 93 C44.0407666 93.56581787 44.0815332 94.13163574 44.12353516 94.71459961 C46.93159957 136.06935352 46.93159957 136.06935352 40.79052734 144.73095703 C35.45259013 150.05763871 29.20065883 153.07885991 22.19677734 155.69580078 C17.75341239 157.50857423 13.86938933 160.03849956 9.86254883 162.65991211 C7 164 7 164 0 164 C0 109.88 0 55.76 0 0 Z " fill="#FCFCFC" transform="translate(339,296)"/>
<path d="M0 0 C25.18773893 -0.46452797 50.65982795 1.22316774 70.5625 18.5 C82.97033106 30.55918126 89.11061421 45.03892674 89.43188477 62.27270508 C89.52528059 119.06954536 52.67256205 168.33202989 15.47265625 208.28125 C13.66657645 210.26708181 11.98230635 212.25329215 10.30859375 214.34375 C9.54675781 215.2203125 8.78492188 216.096875 8 217 C7.34 217 6.68 217 6 217 C5.731875 217.598125 5.46375 218.19625 5.1875 218.8125 C4.00082594 220.99847854 2.90400887 222.41332594 1 224 C0.34 224 -0.32 224 -1 224 C-1 241.16 -1 258.32 -1 276 C-15.19 276 -29.38 276 -44 276 C-44 272.04 -44 268.08 -44 264 C-44.71800781 264.55945313 -45.43601562 265.11890625 -46.17578125 265.6953125 C-70.44985656 284.49789637 -95.48391382 301.49814804 -122 317 C-122.79438477 317.46889648 -123.58876953 317.93779297 -124.40722656 318.42089844 C-141.9649983 328.74302415 -160.78737312 337.52322391 -179.82421875 344.75390625 C-182.28279162 345.71858613 -184.62099429 346.75630796 -187.0078125 347.875 C-193.20509978 350.64991445 -199.68583488 352.51833747 -206.1875 354.4375 C-206.84784241 354.63353821 -207.50818481 354.82957642 -208.1885376 355.03155518 C-245.0209565 365.93143112 -289.8172074 376.17528222 -326 358 C-327.17369141 357.44892578 -327.17369141 357.44892578 -328.37109375 356.88671875 C-342.73121271 349.64444038 -350.59996994 337.64776314 -356.0546875 322.9453125 C-357.44665197 318.60836534 -358.13044957 314.74012127 -358.0625 310.1875 C-358.05347656 309.39730469 -358.04445313 308.60710937 -358.03515625 307.79296875 C-358.02355469 307.20128906 -358.01195312 306.60960937 -358 306 C-357.67 306 -357.34 306 -357 306 C-356.8040625 307.14855469 -356.608125 308.29710937 -356.40625 309.48046875 C-354.40389796 320.22193895 -351.583795 328.11444854 -345 337 C-344.505 337.69480469 -344.01 338.38960937 -343.5 339.10546875 C-337.73341342 346.5266725 -329.61091942 350.95774302 -321.1875 354.75 C-320.57277832 355.03166016 -319.95805664 355.31332031 -319.32470703 355.60351562 C-307.22554448 360.79639563 -295.13876948 361.53885747 -282.1875 361.4375 C-280.96969849 361.43343643 -280.96969849 361.43343643 -279.72729492 361.42929077 C-265.81884908 361.3591478 -252.59321617 360.04995282 -239 357 C-237.23969169 356.63359364 -235.47927552 356.26770504 -233.71875 355.90234375 C-189.87563107 346.43412616 -148.10473715 325.11095996 -110 302 C-108.71005127 301.21858643 -108.71005127 301.21858643 -107.39404297 300.42138672 C-96.32515675 293.67333557 -85.72420043 286.4037632 -75.30322266 278.69726562 C-72.91328161 276.93609643 -70.51075793 275.19326305 -68.10546875 273.453125 C-59.28727001 267.05203102 -50.73824672 260.48671336 -42.52832031 253.32226562 C-40.95729458 251.96305231 -39.36893462 250.62725352 -37.7734375 249.296875 C-25.4671886 239.03522645 -13.96593578 228.05800586 -2.625 216.75 C-2.1027182 216.23039703 -1.5804364 215.71079407 -1.04232788 215.17544556 C4.85781724 209.29825233 10.61713259 203.36157058 16 197 C16.88852953 195.97847603 17.77780731 194.95760223 18.66796875 193.9375 C25.84072542 185.57484416 32.50419079 176.89664847 39 168 C39.97066406 166.67548828 39.97066406 166.67548828 40.9609375 165.32421875 C46.35004918 157.79717309 51.1939715 149.90718974 56 142 C56.36802734 141.39607422 56.73605469 140.79214844 57.11523438 140.16992188 C73.20319766 113.55489943 86.8392098 79.05148109 79.5 47.625 C77.44549667 39.79767275 73.67126756 33.53033768 69 27 C68.36771484 26.06414062 68.36771484 26.06414062 67.72265625 25.109375 C58.16620589 12.18606135 39.81193057 5.93751892 24.58300781 3.37451172 C16.43300971 2.19283903 8.21222623 1.56891232 0 1 C0 0.67 0 0.34 0 0 Z " fill="#EFEFEF" transform="translate(500,184)"/>
<path d="M0 0 C0.33 0 0.66 0 1 0 C1.25 2.25 1.25 2.25 1 5 C-0.29233607 6.37310707 -1.62437146 7.71034824 -3 9 C-3 9.99 -3 10.98 -3 12 C-1.35 12.33 0.3 12.66 2 13 C-10.33501781 30.00232185 -24.95170212 45.03544243 -39.75 59.875 C-40.56528168 60.69429993 -40.56528168 60.69429993 -41.39703369 61.53015137 C-47.41593597 67.57151647 -53.47315932 73.50157523 -60 79 C-61.03278531 79.88905206 -62.06534989 80.77836061 -63.09765625 81.66796875 C-76.24386654 92.83964943 -89.69083077 103.41914397 -103.76220703 113.40625 C-105.91105738 114.93665531 -108.0484889 116.48174797 -110.18359375 118.03125 C-144.42419024 142.74840174 -182.50567026 163.14451081 -222 178 C-222.69335449 178.26337158 -223.38670898 178.52674316 -224.10107422 178.7980957 C-226.06426335 179.54078366 -228.03105072 180.27272407 -230 181 C-230.78632813 181.29173096 -231.57265625 181.58346191 -232.3828125 181.8840332 C-253.87127528 189.73792072 -277.30149178 196.00148868 -300.3125 196.23828125 C-301.0844873 196.246353 -301.85647461 196.25442474 -302.65185547 196.26274109 C-304.27878645 196.276484 -305.90574508 196.28724928 -307.53271484 196.29516602 C-309.16333742 196.306622 -310.79392441 196.32697133 -312.42431641 196.35668945 C-326.7951185 196.61752636 -340.48772098 195.18483498 -353.375 188.25 C-354.3640332 187.73240112 -354.3640332 187.73240112 -355.37304688 187.2043457 C-365.79650207 181.58297938 -372.3775221 174.81107837 -379 165 C-377.35 161.37 -375.7 157.74 -374 154 C-371.94860395 156.73519474 -370.20003134 159.29905311 -368.4375 162.1875 C-359.102401 176.1328076 -345.16068159 182.32140932 -329.18511963 185.62808228 C-322.92165579 186.69415353 -316.58147135 186.54624288 -310.25 186.4375 C-309.51054138 186.43068207 -308.77108276 186.42386414 -308.00921631 186.4168396 C-296.14167128 186.30391728 -284.61246658 185.5526322 -273 183 C-271.8248584 182.75056641 -271.8248584 182.75056641 -270.62597656 182.49609375 C-257.32300435 179.60995273 -244.47858142 175.3675648 -231.63037109 170.91064453 C-229.3890697 170.13469742 -227.14368609 169.3738558 -224.89453125 168.62109375 C-217.08746611 165.94816636 -209.65978378 162.66477093 -202.23925781 159.07470703 C-199.73801554 157.87426345 -197.22524091 156.70017704 -194.7109375 155.52734375 C-145.98833197 132.69450312 -101.22162166 102.38578471 -61.44140625 66.1953125 C-60.09871465 64.98796421 -58.74970007 63.78710035 -57.37426758 62.6171875 C-51.37715347 57.4890287 -45.7852086 51.97134139 -40.2097168 46.39501953 C-38.57424118 44.76172552 -36.93092292 43.1366153 -35.28710938 41.51171875 C-29.46578724 35.72072229 -24.01542431 29.83871643 -18.91772461 23.39135742 C-17.02500327 21.03117848 -15.0450293 18.79113957 -13 16.5625 C-8.92098984 12.04850485 -5.36160513 7.22237686 -1.78515625 2.30859375 C-1.19605469 1.54675781 -0.60695313 0.78492188 0 0 Z " fill="#0C0C0C" transform="translate(529,350)"/>
<path d="M0 0 C0.66 0.66 1.32 1.32 2 2 C0.515 3.485 0.515 3.485 -1 5 C-0.34 5.99 0.32 6.98 1 8 C-4.31780787 12.02095827 -9.65252731 16.01857984 -15 20 C-15.71607422 20.53415527 -16.43214844 21.06831055 -17.16992188 21.61865234 C-34.61687392 34.58370831 -52.94043231 46.08212388 -71.85498047 56.77685547 C-73.83404245 57.90536679 -75.79591318 59.05809146 -77.75390625 60.22265625 C-94.19833705 69.89894008 -111.9979959 77.9830495 -129.82421875 84.75390625 C-132.28279162 85.71858613 -134.62099429 86.75630796 -137.0078125 87.875 C-143.20509978 90.64991445 -149.68583488 92.51833747 -156.1875 94.4375 C-156.84784241 94.63353821 -157.50818481 94.82957642 -158.1885376 95.03155518 C-195.0209565 105.93143112 -239.8172074 116.17528222 -276 98 C-276.78246094 97.63261719 -277.56492187 97.26523437 -278.37109375 96.88671875 C-292.73121271 89.64444038 -300.59996994 77.64776314 -306.0546875 62.9453125 C-307.44665197 58.60836534 -308.13044957 54.74012127 -308.0625 50.1875 C-308.05347656 49.39730469 -308.04445313 48.60710937 -308.03515625 47.79296875 C-308.02355469 47.20128906 -308.01195312 46.60960937 -308 46 C-307.67 46 -307.34 46 -307 46 C-306.8040625 47.14855469 -306.608125 48.29710937 -306.40625 49.48046875 C-304.40389796 60.22193895 -301.583795 68.11444854 -295 77 C-294.505 77.69480469 -294.01 78.38960937 -293.5 79.10546875 C-287.73341342 86.5266725 -279.61091942 90.95774302 -271.1875 94.75 C-270.57277832 95.03166016 -269.95805664 95.31332031 -269.32470703 95.60351562 C-257.22554448 100.79639563 -245.13876948 101.53885747 -232.1875 101.4375 C-230.96969849 101.43343643 -230.96969849 101.43343643 -229.72729492 101.42929077 C-215.81884908 101.3591478 -202.59321617 100.04995282 -189 97 C-187.23969169 96.63359364 -185.47927552 96.26770504 -183.71875 95.90234375 C-139.87563107 86.43412616 -98.10473715 65.11095996 -60 42 C-59.14003418 41.47905762 -58.28006836 40.95811523 -57.39404297 40.42138672 C-45.50490784 33.17327788 -34.19137997 25.27574326 -23 17 C-21.26339297 15.72345192 -19.52640364 14.4474238 -17.7890625 13.171875 C-11.84343267 8.80263694 -5.89901947 4.43205886 0 0 Z " fill="#ECECEC" transform="translate(450,444)"/>
<path d="M0 0 C0 0.99 0 1.98 0 3 C0.99 3.33 1.98 3.66 3 4 C2.67 21.49 2.34 38.98 2 57 C-12.19 57 -26.38 57 -41 57 C-41 53.04 -41 49.08 -41 45 C-42.32 45.99 -43.64 46.98 -45 48 C-47.25 47.6875 -47.25 47.6875 -49 47 C-48.319375 45.88625 -48.319375 45.88625 -47.625 44.75 C-46.02809445 42.19455453 -46.02809445 42.19455453 -45.20703125 40.0859375 C-43.60176801 37.31179327 -41.58947664 35.84002344 -39.0625 33.875 C-34.03630896 29.87509927 -29.27089949 25.67849784 -24.546875 21.328125 C-22.41788614 19.38199408 -20.25843347 17.49426568 -18.0625 15.625 C-13.81573617 11.9609522 -9.92225101 7.94972167 -6.03540039 3.91064453 C-2.21513575 0 -2.21513575 0 0 0 Z " fill="#F9F9F9" transform="translate(497,403)"/>
<path d="M0 0 C5.875 4.625 5.875 4.625 7 8 C5.515625 10.2421875 5.515625 10.2421875 3.25 12.875 C1.99509766 14.34839844 1.99509766 14.34839844 0.71484375 15.8515625 C0.26737793 16.36879883 -0.18008789 16.88603516 -0.64111328 17.41894531 C-1.96563367 18.96001503 -3.26534778 20.51857692 -4.55859375 22.0859375 C-16.21994015 36.16723248 -28.99904997 49.16292749 -42 62 C-42.66 61.67 -43.32 61.34 -44 61 C-43.67 59.68 -43.34 58.36 -43 57 C-42.34 57 -41.68 57 -41 57 C-41 55.35 -41 53.7 -41 52 C-41.66 52.66 -42.32 53.32 -43 54 C-43.99 53.34 -44.98 52.68 -46 52 C-45.38068604 51.39115967 -44.76137207 50.78231934 -44.12329102 50.1550293 C-41.77624661 47.84254851 -39.43414088 45.52526982 -37.0949707 43.20483398 C-36.09130492 42.21108174 -35.08583546 41.2191471 -34.07836914 40.22924805 C-27.22786267 33.49502576 -20.99046914 26.52663969 -15 19 C-13.95866318 17.75855299 -12.91140559 16.52202141 -11.85546875 15.29296875 C-11.40623047 14.76896484 -10.95699219 14.24496094 -10.49414062 13.70507812 C-9.60507363 12.67248462 -8.71438497 11.64128566 -7.82226562 10.61132812 C-4.9179135 7.21657593 -2.40586733 3.75180709 0 0 Z " fill="#0C0C0C" transform="translate(486,337)"/>
<path d="M0 0 C0.33 0 0.66 0 1 0 C1.1959375 1.14855469 1.391875 2.29710937 1.59375 3.48046875 C3.59610204 14.22193895 6.416205 22.11444854 13 31 C13.495 31.69480469 13.99 32.38960937 14.5 33.10546875 C20.26658658 40.5266725 28.38908058 44.95774302 36.8125 48.75 C37.42722168 49.03166016 38.04194336 49.31332031 38.67529297 49.60351562 C50.15376227 54.52999823 61.5445438 55.465699 73.85498047 55.33618164 C76.23309711 55.31266713 78.61007798 55.31563632 80.98828125 55.32226562 C91.44888975 55.30160369 101.64296582 54.44380296 112 53 C110.68 53.99 109.36 54.98 108 56 C109.98 56.33 111.96 56.66 114 57 C114 57.33 114 57.66 114 58 C86.66171834 62.20474253 57.52122761 64.81978203 32 52 C31.21753906 51.63261719 30.43507812 51.26523437 29.62890625 50.88671875 C15.26878729 43.64444038 7.40003006 31.64776314 1.9453125 16.9453125 C0.55334803 12.60836534 -0.13044957 8.74012127 -0.0625 4.1875 C-0.05347656 3.39730469 -0.04445312 2.60710937 -0.03515625 1.79296875 C-0.02355469 1.20128906 -0.01195312 0.60960937 0 0 Z " fill="#E6E6E6" transform="translate(142,490)"/>
<path d="M0 0 C-1.98 0.99 -1.98 0.99 -4 2 C-2.02 2.33 -0.04 2.66 2 3 C2 3.33 2 3.66 2 4 C-10.68616298 5.95118514 -23.21406971 7.29781398 -36.0625 7.3125 C-37.69227783 7.32023438 -37.69227783 7.32023438 -39.35498047 7.328125 C-44.94946925 7.27905822 -49.71880866 6.88025394 -55 5 C-54.67 4.01 -54.34 3.02 -54 2 C-52.94723877 1.98018066 -51.89447754 1.96036133 -50.80981445 1.93994141 C-46.84166614 1.86291108 -42.87383901 1.77435899 -38.90600586 1.68261719 C-37.20034197 1.64472425 -35.49460889 1.60980845 -33.78881836 1.578125 C-24.55573505 1.404581 -15.64304458 1.08385716 -6.55541992 -0.68212891 C-4.0155192 -0.99806955 -2.4046187 -0.80875851 0 0 Z " fill="#C9C9C9" transform="translate(254,544)"/>
<path d="M0 0 C0.99 0.495 0.99 0.495 2 1 C1.81323242 2.83789062 1.81323242 2.83789062 1 5 C-1.15112305 6.36523438 -1.15112305 6.36523438 -4.01171875 7.59375 C-5.06866943 8.06039062 -6.12562012 8.52703125 -7.21459961 9.0078125 C-8.36065674 9.50023437 -9.50671387 9.99265625 -10.6875 10.5 C-13.08073156 11.56708986 -15.47132291 12.64011879 -17.859375 13.71875 C-18.46353745 13.99146729 -19.06769989 14.26418457 -19.69017029 14.54516602 C-38.09476114 22.91711809 -55.24036882 33.7561968 -72 45 C-72.66 44.67 -73.32 44.34 -74 44 C-48.65849286 26.90101562 -48.65849286 26.90101562 -36.91503906 20.11132812 C-34.74569702 18.85242387 -32.58787261 17.57480656 -30.4296875 16.296875 C-22.70407289 11.7440022 -14.93112464 7.31766968 -6.9375 3.25 C-6.26468994 2.90251709 -5.59187988 2.55503418 -4.89868164 2.19702148 C-3.29655507 1.39961602 -1.65111707 0.69027346 0 0 Z " fill="#E0E0E0" transform="translate(385,227)"/>
<path d="M0 0 C1.75 2.0625 1.75 2.0625 3 4 C2.12432373 4.28665527 2.12432373 4.28665527 1.23095703 4.57910156 C-1.47213187 5.46607763 -4.17356001 6.3580151 -6.875 7.25 C-7.7928125 7.55035156 -8.710625 7.85070312 -9.65625 8.16015625 C-15.16848269 9.98462763 -20.50950069 11.98547711 -25.81298828 14.35449219 C-28.30196549 15.08912668 -29.5841987 14.85409201 -32 14 C-31.34 13.34 -30.68 12.68 -30 12 C-29.57066162 11.51563477 -29.14132324 11.03126953 -28.69897461 10.53222656 C-25.04101591 7.23328292 -20.03749759 5.68779712 -15.5625 3.75 C-14.51255859 3.27820313 -13.46261719 2.80640625 -12.38085938 2.3203125 C-10.86395508 1.65902344 -10.86395508 1.65902344 -9.31640625 0.984375 C-8.39287354 0.57928711 -7.46934082 0.17419922 -6.51782227 -0.24316406 C-3.74307666 -1.07722897 -2.60938001 -1.22931707 0 0 Z " fill="#E5E5E5" transform="translate(416,216)"/>
<path d="M0 0 C0.33 0 0.66 0 1 0 C1.1959375 1.14855469 1.391875 2.29710937 1.59375 3.48046875 C4.36973269 18.37202363 10.1767997 29.1767997 21 40 C20.01 40.99 19.02 41.98 18 43 C8.27852276 33.69220264 0.44599252 20.14981299 -0.1015625 6.4609375 C-0.12156701 4.3071185 -0.06834373 2.15282735 0 0 Z " fill="#DFDFDF" transform="translate(142,490)"/>
<path d="M0 0 C17.41929621 -0.32125751 33.31473469 0.62943023 50 6 C50 6.99 50 7.98 50 9 C46.36454804 10.21181732 45.63753109 9.67759907 42.1875 8.25 C28.5135941 3.08667616 14.4527638 2.0934786 0 1 C0 0.67 0 0.34 0 0 Z " fill="#D2D2D2" transform="translate(500,184)"/>
<path d="M0 0 C0.66 0.99 1.32 1.98 2 3 C1.19502075 3.40557129 1.19502075 3.40557129 0.3737793 3.81933594 C-15.05649721 11.63686216 -29.64025168 20.37373448 -44 30 C-44.66 29.67 -45.32 29.34 -46 29 C-30.92214066 18.82633196 -15.80282892 9.00741321 0 0 Z " fill="#C3C3C3" transform="translate(357,242)"/>
<path d="M0 0 C4.44271164 0.54387178 7.71904871 1.63947076 11.625 3.8125 C12.54539062 4.31394531 13.46578125 4.81539062 14.4140625 5.33203125 C16.9827473 6.98887175 18.93131518 8.76135281 21 11 C18.38042675 12.20063774 16.82197428 12.91464728 14 13 C10.97375343 11.42007857 8.57915104 9.21442261 6 7 C4.84519188 6.25219432 3.67972926 5.52033756 2.5 4.8125 C1.675 4.214375 0.85 3.61625 0 3 C0 2.01 0 1.02 0 0 Z " fill="#EAEAEA" transform="translate(548,191)"/>
<path d="M0 0 C0 0.66 0 1.32 0 2 C-0.99 2.495 -0.99 2.495 -2 3 C-2 3.66 -2 4.32 -2 5 C-0.68 5.66 0.64 6.32 2 7 C1.38125 7.2475 0.7625 7.495 0.125 7.75 C-2.41292362 9.24289625 -2.7414688 10.40427941 -4 13 C-6.125 14.75 -6.125 14.75 -8 16 C-11 14 -11 14 -11.98828125 12.203125 C-12 10 -12 10 -9.98046875 7.421875 C-9.05878906 6.54015625 -8.13710938 5.6584375 -7.1875 4.75 C-6.27355469 3.85796875 -5.35960937 2.9659375 -4.41796875 2.046875 C-2 0 -2 0 0 0 Z " fill="#E8E8E8" transform="translate(508,392)"/>
<path d="M0 0 C0.66 0.99 1.32 1.98 2 3 C1.44119141 3.74443359 1.44119141 3.74443359 0.87109375 4.50390625 C-2.54763059 9.30897424 -2.54763059 9.30897424 -2.8125 15 C-2.544375 15.99 -2.27625 16.98 -2 18 C-3.32 18.99 -4.64 19.98 -6 21 C-6.309375 19.906875 -6.61875 18.81375 -6.9375 17.6875 C-7.58337897 15.44592006 -8.2623117 13.2130649 -9 11 C-7.12890625 8.30078125 -7.12890625 8.30078125 -4.5625 5.3125 C-3.71816406 4.31863281 -2.87382812 3.32476562 -2.00390625 2.30078125 C-1.01197266 1.16189453 -1.01197266 1.16189453 0 0 Z " fill="#141414" transform="translate(512,371)"/>
<path d="M0 0 C0.33 0 0.66 0 1 0 C1.14695313 0.98226563 1.14695313 0.98226563 1.296875 1.984375 C2.49191448 9.27823666 4.50174256 16.05096354 7 23 C6.38125 23.12375 5.7625 23.2475 5.125 23.375 C2.80879168 23.87197356 2.80879168 23.87197356 1 26 C0.22471521 22.57426063 -0.11918778 19.42760755 -0.09765625 15.91796875 C-0.09443359 14.98662109 -0.09121094 14.05527344 -0.08789062 13.09570312 C-0.07951172 12.13599609 -0.07113281 11.17628906 -0.0625 10.1875 C-0.05798828 9.20845703 -0.05347656 8.22941406 -0.04882812 7.22070312 C-0.03708684 4.81373889 -0.02066419 2.40690143 0 0 Z " fill="#E1E1E1" transform="translate(152,472)"/>
<path d="M0 0 C1.86011719 0.30164063 1.86011719 0.30164063 3.7578125 0.609375 C6.875 1.25 6.875 1.25 8.875 2.25 C8.545 3.57 8.215 4.89 7.875 6.25 C1.18506781 5.71048934 -4.75960728 4.36293829 -11.125 2.25 C-7.4737913 -1.38286092 -4.89316052 -0.83766005 0 0 Z " fill="#DBDBDB" transform="translate(191.125,542.75)"/>
<path d="M0 0 C7.92 0 15.84 0 24 0 C24 0.99 24 1.98 24 3 C16.41 3 8.82 3 1 3 C0.67 2.01 0.34 1.02 0 0 Z " fill="#FCFCFC" transform="translate(208,547)"/>
<path d="M0 0 C0.66 0.33 1.32 0.66 2 1 C2 1.66 2 2.32 2 3 C3.32 3.66 4.64 4.32 6 5 C4.57086153 5.72505558 3.13129342 6.42958435 1.6875 7.125 C0.88699219 7.51945312 0.08648437 7.91390625 -0.73828125 8.3203125 C-1.85783203 8.65675781 -1.85783203 8.65675781 -3 9 C-3.99 8.34 -4.98 7.68 -6 7 C-6.66 7.66 -7.32 8.32 -8 9 C-10.625 8.625 -10.625 8.625 -13 8 C-10.23145402 5.85090038 -7.42165474 3.98221172 -4.375 2.25 C-3.59898437 1.80140625 -2.82296875 1.3528125 -2.0234375 0.890625 C-1.35570312 0.59671875 -0.68796875 0.3028125 0 0 Z " fill="#E6E6E6" transform="translate(367,499)"/>
<path d="M0 0 C-0.58536753 3.66060821 -2.083239 5.54535164 -4.5625 8.25 C-5.20316406 8.95640625 -5.84382812 9.6628125 -6.50390625 10.390625 C-7.24447266 11.18726563 -7.24447266 11.18726563 -8 12 C-9.4606285 9.35261084 -10 8.10551666 -10 5 C-9 2 -9 2 -6.6875 0.8125 C-4 0 -4 0 0 0 Z " fill="#F4F4F4" transform="translate(541,360)"/>
<path d="M0 0 C0 0.33 0 0.66 0 1 C-0.84425537 1.029729 -0.84425537 1.029729 -1.70556641 1.06005859 C-11.96150815 1.43836009 -22.05355841 1.89624694 -32.1875 3.59765625 C-34.83848564 3.97689447 -37.32697837 4.07370464 -40 4 C-39.67 3.34 -39.34 2.68 -39 2 C-35.06495072 0.99320646 -31.02234766 0.54201848 -27 0 C-25.67355469 -0.18949219 -25.67355469 -0.18949219 -24.3203125 -0.3828125 C-16.16693817 -1.34932192 -8.15032231 -0.66470634 0 0 Z " fill="#404040" transform="translate(512,185)"/>
<path d="M0 0 C2.64 0 5.28 0 8 0 C8.33 1.32 8.66 2.64 9 4 C16.59 4 24.18 4 32 4 C32 4.33 32 4.66 32 5 C27.81255925 5.05840224 23.62522435 5.09373166 19.4375 5.125 C18.25607422 5.14175781 17.07464844 5.15851562 15.85742188 5.17578125 C9.84603241 5.2094585 4.65816878 5.11038894 -1 3 C-0.67 2.01 -0.34 1.02 0 0 Z " fill="#BDBDBD" transform="translate(200,546)"/>
<path d="M0 0 C0 2 0 4 0 6 C-0.66 6 -1.32 6 -2 6 C-2 20.52 -2 35.04 -2 50 C-2.33 50 -2.66 50 -3 50 C-3.07588365 43.20075608 -3.12852926 36.40162078 -3.16479492 29.60205078 C-3.17990853 27.28755615 -3.20039996 24.97309026 -3.22631836 22.65869141 C-3.26258841 19.33749304 -3.27970044 16.01667232 -3.29296875 12.6953125 C-3.30845261 11.65569366 -3.32393646 10.61607483 -3.33988953 9.54495239 C-3.34022942 8.10368484 -3.34022942 8.10368484 -3.34057617 6.63330078 C-3.34723801 5.78502716 -3.35389984 4.93675354 -3.36076355 4.06277466 C-3.24171158 3.38205902 -3.12265961 2.70134338 -3 2 C-2.01 1.34 -1.02 0.68 0 0 Z " fill="#0C0C0C" transform="translate(502,406)"/>
<path d="M0 0 C1.125 6.75 1.125 6.75 0 9 C-2.64860427 9.59355614 -5.29197322 9.74209269 -8 10 C-7.61508669 5.50934475 -5.14531178 0 0 0 Z " fill="#F6F6F6" transform="translate(556,333)"/>
<path d="M0 0 C0.66 0.66 1.32 1.32 2 2 C0.62714844 2.90492188 0.62714844 2.90492188 -0.7734375 3.828125 C-1.97427864 4.63494014 -3.17478192 5.4422583 -4.375 6.25 C-4.97828125 6.64574219 -5.5815625 7.04148437 -6.203125 7.44921875 C-9.40140777 9.61694374 -11.71750097 11.27220283 -13 15 C-13.66 15 -14.32 15 -15 15 C-15.66 15.66 -16.32 16.32 -17 17 C-18.32 17 -19.64 17 -21 17 C-21 16.34 -21 15.68 -21 15 C-19.50292969 13.71899414 -19.50292969 13.71899414 -17.421875 12.28515625 C-16.67292969 11.76373047 -15.92398437 11.24230469 -15.15234375 10.70507812 C-13.96318359 9.89200195 -13.96318359 9.89200195 -12.75 9.0625 C-11.20284299 7.99129262 -9.65595931 6.91969033 -8.109375 5.84765625 C-7.41811523 5.37336182 -6.72685547 4.89906738 -6.01464844 4.41040039 C-3.97548646 2.98283874 -1.98320723 1.50407103 0 0 Z " fill="#373737" transform="translate(310,271)"/>
<path d="M0 0 C0.66 0.33 1.32 0.66 2 1 C1.81640625 2.859375 1.81640625 2.859375 1 5 C-1.28515625 6.265625 -1.28515625 6.265625 -4.0625 7.25 C-4.98160156 7.58515625 -5.90070313 7.9203125 -6.84765625 8.265625 C-7.91306641 8.62914062 -7.91306641 8.62914062 -9 9 C-9.99 8.01 -10.98 7.02 -12 6 C-10.04669132 4.96958487 -8.08718472 3.9509107 -6.125 2.9375 C-5.03445313 2.36902344 -3.94390625 1.80054688 -2.8203125 1.21484375 C-1.42425781 0.61349609 -1.42425781 0.61349609 0 0 Z " fill="#D9D9D9" transform="translate(385,227)"/>
<path d="M0 0 C-0.33 0.66 -0.66 1.32 -1 2 C0.32 2.33 1.64 2.66 3 3 C-3.625 6 -3.625 6 -7 6 C-7 5.34 -7 4.68 -7 4 C-6.34 4 -5.68 4 -5 4 C-5 3.34 -5 2.68 -5 2 C-7.64 2.33 -10.28 2.66 -13 3 C-8.8341563 0.22277086 -4.9360889 -1.89849573 0 0 Z " fill="#D6D6D6" transform="translate(306,530)"/>
<path d="M0 0 C0.66 0.99 1.32 1.98 2 3 C-1.3 6.3 -4.6 9.6 -8 13 C-8.66 12.67 -9.32 12.34 -10 12 C-9.61402985 9.20171644 -9.19863427 8.1794116 -7.0625 6.25 C-5 5 -5 5 -3 5 C-2.690625 4.360625 -2.38125 3.72125 -2.0625 3.0625 C-1 1 -1 1 0 0 Z " fill="#171717" transform="translate(452,386)"/>
<path d="M0 0 C2.28369393 1.22968135 3.75423908 2.36346104 5.4375 4.3125 C3.1275 4.9725 0.8175 5.6325 -1.5625 6.3125 C-3.2125 4.6625 -4.8625 3.0125 -6.5625 1.3125 C-3.99362178 -0.40008548 -3.04679832 -0.8174337 0 0 Z " fill="#E3E3E3" transform="translate(563.5625,197.6875)"/>
<path d="M0 0 C0.33 0 0.66 0 1 0 C1.26554688 1.24136719 1.53109375 2.48273438 1.8046875 3.76171875 C2.16123096 5.40369522 2.51801444 7.04561959 2.875 8.6875 C3.04902344 9.50412109 3.22304687 10.32074219 3.40234375 11.16210938 C4.30221963 15.27820831 5.25507296 19.14072444 7 23 C6.01 23 5.02 23 4 23 C1.24331424 15.04202037 -0.16547142 8.43904242 0 0 Z " fill="#C3C3C3" transform="translate(142,490)"/>
<path d="M0 0 C0.66 0.33 1.32 0.66 2 1 C-2.75 5.875 -2.75 5.875 -5 7 C-4.67 7.99 -4.34 8.98 -4 10 C-6.3125 10.625 -6.3125 10.625 -9 11 C-9.99 10.34 -10.98 9.68 -12 9 C-8.04 6.03 -4.08 3.06 0 0 Z " fill="#DEDEDE" transform="translate(396,437)"/>
<path d="M0 0 C2.625 0.9375 2.625 0.9375 5 2 C5 3.65 5 5.3 5 7 C1.62537285 6.45276317 -0.08235 5.9451 -3 4 C-2.67 3.01 -2.34 2.02 -2 1 C-1.34 0.67 -0.68 0.34 0 0 Z " fill="#030303" transform="translate(465,365)"/>
<path d="M0 0 C2 2 2 2 2.1953125 4.6015625 C2.17210937 5.59929687 2.14890625 6.59703125 2.125 7.625 C2.10695312 8.62789063 2.08890625 9.63078125 2.0703125 10.6640625 C2.03550781 11.82035156 2.03550781 11.82035156 2 13 C1.67 13 1.34 13 1 13 C0.67 15.64 0.34 18.28 0 21 C-0.33 21 -0.66 21 -1 21 C-1.02888146 17.68751813 -1.04675799 14.37506833 -1.0625 11.0625 C-1.07087891 10.11697266 -1.07925781 9.17144531 -1.08789062 8.19726562 C-1.09111328 7.29814453 -1.09433594 6.39902344 -1.09765625 5.47265625 C-1.10289307 4.64000244 -1.10812988 3.80734863 -1.11352539 2.94946289 C-1 1 -1 1 0 0 Z " fill="#545454" transform="translate(152,467)"/>
<path d="M0 0 C0.66 0.66 1.32 1.32 2 2 C1.34 2 0.68 2 0 2 C0 2.66 0 3.32 0 4 C-3.71888239 3.49287967 -6.73454239 2.88391785 -10 1 C-6.42894485 -1.33492068 -4.06144397 -1.05950712 0 0 Z " fill="#E1E1E1" transform="translate(190,543)"/>
<path d="M0 0 C3.43595166 1.52708963 6.11912454 3.59927045 9 6 C7.375 6.6875 7.375 6.6875 5 7 C1.75 5.5625 1.75 5.5625 -1 4 C-0.67 2.68 -0.34 1.36 0 0 Z " fill="#ECECEC" transform="translate(162,530)"/>
<path d="M0 0 C2.66666667 2.66666667 5.33333333 5.33333333 8 8 C7.01 8.99 6.02 9.98 5 11 C3.35 9.02 1.7 7.04 0 5 C0.66 5 1.32 5 2 5 C2 4.34 2 3.68 2 3 C1.34 3 0.68 3 0 3 C0 2.01 0 1.02 0 0 Z " fill="#D9D9D9" transform="translate(155,522)"/>
<path d="M0 0 C0.66 0.66 1.32 1.32 2 2 C-0.31 4.64 -2.62 7.28 -5 10 C-5.66 9.67 -6.32 9.34 -7 9 C-5.44499019 5.18315774 -2.96404505 2.80804268 0 0 Z " fill="#171717" transform="translate(467,371)"/>
<path d="M0 0 C0.66 1.98 1.32 3.96 2 6 C1.38125 6.12375 0.7625 6.2475 0.125 6.375 C-2.19120832 6.87197356 -2.19120832 6.87197356 -4 9 C-4 6.36 -4 3.72 -4 1 C-2 0 -2 0 0 0 Z " fill="#E9E9E9" transform="translate(157,489)"/>
<path d="M0 0 C3.96 0.99 3.96 0.99 8 2 C8 2.99 8 3.98 8 5 C3.82412255 6.39195915 1.86525224 4.82323219 -2 3 C-1.34 2.67 -0.68 2.34 0 2 C0 1.34 0 0.68 0 0 Z " fill="#DCDCDC" transform="translate(542,188)"/>
<path d="M0 0 C0 3.54016293 -0.73358567 4.41055605 -2.8125 7.1875 C-3.59560547 8.26064453 -3.59560547 8.26064453 -4.39453125 9.35546875 C-4.92433594 9.89816406 -5.45414062 10.44085938 -6 11 C-8 11 -10 11 -12 11 C-8.04 7.37 -4.08 3.74 0 0 Z " fill="#D9D9D9" transform="translate(441,400)"/>
<path d="M0 0 C0.66 0.33 1.32 0.66 2 1 C0.50902342 4.7952131 -1.75700849 6.61042731 -5 9 C-5 5 -5 5 -3 2 C-2.01 1.34 -1.02 0.68 0 0 Z " fill="#191919" transform="translate(466,311)"/>
<path d="M0 0 C1.65 0.33 3.3 0.66 5 1 C4.01 1.495 4.01 1.495 3 2 C2.67 2.99 2.34 3.98 2 5 C0.35 5.33 -1.3 5.66 -3 6 C-3.33 5.01 -3.66 4.02 -4 3 C-2.68 2.67 -1.36 2.34 0 2 C0 1.34 0 0.68 0 0 Z " fill="#F4F4F4" transform="translate(402,220)"/>
<path d="M0 0 C0.66 0 1.32 0 2 0 C2 3.96 2 7.92 2 12 C1.67 12 1.34 12 1 12 C0.67 9.69 0.34 7.38 0 5 C-1.98 5.33 -3.96 5.66 -6 6 C-4 4 -2 2 0 0 Z " fill="#272727" transform="translate(454,448)"/>
<path d="M0 0 C1.0625 1.8125 1.0625 1.8125 2 4 C1.67 4.99 1.34 5.98 1 7 C-0.98 7.33 -2.96 7.66 -5 8 C-3.8141763 4.62496331 -2.72426311 2.35277269 0 0 Z " fill="#E6E6E6" transform="translate(212,312)"/>
<path d="M0 0 C0.58265625 0.21527344 1.1653125 0.43054688 1.765625 0.65234375 C1.765625 1.31234375 1.765625 1.97234375 1.765625 2.65234375 C0.095 3.08546875 0.095 3.08546875 -1.609375 3.52734375 C-5.23728592 4.34475704 -5.23728592 4.34475704 -7.234375 6.65234375 C-7.894375 5.99234375 -8.554375 5.33234375 -9.234375 4.65234375 C-8.16330383 3.78285058 -7.07691556 2.9322017 -5.984375 2.08984375 C-5.38109375 1.61417969 -4.7778125 1.13851563 -4.15625 0.6484375 C-2.234375 -0.34765625 -2.234375 -0.34765625 0 0 Z " fill="#1A1A1A" transform="translate(423.234375,454.34765625)"/>
<path d="M0 0 C2.00720923 0.28674418 4.0085944 0.61866701 6 1 C4.37660195 2.70884005 2.70680947 4.37446717 1 6 C0.34 6 -0.32 6 -1 6 C-1.042721 4.33388095 -1.04063832 2.66617115 -1 1 C-0.67 0.67 -0.34 0.34 0 0 Z " fill="#121212" transform="translate(370,450)"/>
<path d="M0 0 C0.66 0.33 1.32 0.66 2 1 C0.33333333 2.66666667 -1.33333333 4.33333333 -3 6 C-3.556875 6.598125 -4.11375 7.19625 -4.6875 7.8125 C-6 9 -6 9 -8 9 C-8 7 -8 7 -6 5 C-5.525625 4.505 -5.05125 4.01 -4.5625 3.5 C-3 2 -3 2 0 0 Z " fill="#161616" transform="translate(338,255)"/>
<path d="M0 0 C0.66 0.99 1.32 1.98 2 3 C-0.97 5.475 -0.97 5.475 -4 8 C-4.66 7.34 -5.32 6.68 -6 6 C-4.02 4.02 -2.04 2.04 0 0 Z " fill="#161616" transform="translate(422,413)"/>
<path d="M0 0 C0.33 0.66 0.66 1.32 1 2 C-0.0625 5 -0.0625 5 -2 8 C-5.1875 9.375 -5.1875 9.375 -8 10 C-7.04367001 8.70684939 -6.08486149 7.41553147 -5.125 6.125 C-4.59132813 5.40570313 -4.05765625 4.68640625 -3.5078125 3.9453125 C-2 2 -2 2 0 0 Z " fill="#232323" transform="translate(532,373)"/>
<path d="M0 0 C0.66 0.66 1.32 1.32 2 2 C-2.5 8.75 -2.5 8.75 -7 11 C-4.69 7.37 -2.38 3.74 0 0 Z " fill="#262626" transform="translate(539,336)"/>
<path d="M0 0 C1.98 0 3.96 0 6 0 C6.33 1.32 6.66 2.64 7 4 C6.01 4.66 5.02 5.32 4 6 C2.62437146 4.71034824 1.29233607 3.37310707 0 2 C0 1.34 0 0.68 0 0 Z M3 1 C4 3 4 3 4 3 Z " fill="#FAFAFA" transform="translate(563,202)"/>
<path d="M0 0 C0 3.58045317 -0.80367515 4.29683095 -3 7 C-3.99 8.485 -3.99 8.485 -5 10 C-5.99 9.34 -6.98 8.68 -8 8 C-5.36 5.36 -2.72 2.72 0 0 Z " fill="#191919" transform="translate(448,381)"/>
<path d="M0 0 C2.1875 0.3125 2.1875 0.3125 4 1 C4 1.99 4 2.98 4 4 C0.25 6 0.25 6 -2 6 C-2.33 5.01 -2.66 4.02 -3 3 C-1.75 1.4375 -1.75 1.4375 0 0 Z " fill="#E0E0E0" transform="translate(278,537)"/>
<path d="M0 0 C1.485 0.99 1.485 0.99 3 2 C3 3.32 3 4.64 3 6 C3.66 6 4.32 6 5 6 C5 6.66 5 7.32 5 8 C2.00675737 6.9024777 1.15389099 6.32317108 -0.25 3.375 C-0.4975 2.59125 -0.745 1.8075 -1 1 C-0.67 0.67 -0.34 0.34 0 0 Z " fill="#EFEFEF" transform="translate(152,519)"/>
<path d="M0 0 C0.66 0.33 1.32 0.66 2 1 C0.02 3.31 -1.96 5.62 -4 8 C-4.99 7.67 -5.98 7.34 -7 7 C-4.66666667 4.66666667 -2.33333333 2.33333333 0 0 Z " fill="#262626" transform="translate(418,408)"/>
<path d="M0 0 C0.99 0 1.98 0 3 0 C3.33 1.32 3.66 2.64 4 4 C2.35 4.33 0.7 4.66 -1 5 C-1.33 4.34 -1.66 3.68 -2 3 C-1.34 2.01 -0.68 1.02 0 0 Z " fill="#181818" transform="translate(552,315)"/>
<path d="M0 0 C0.8353125 0.37125 0.8353125 0.37125 1.6875 0.75 C-0.84206528 3.8416909 -3.53704612 4.65931332 -7.3125 5.75 C-7.3125 5.09 -7.3125 4.43 -7.3125 3.75 C-3.10958131 -0.33617095 -3.10958131 -0.33617095 0 0 Z " fill="#EDEDED" transform="translate(374.3125,234.25)"/>
<path d="M0 0 C0.99 0.33 1.98 0.66 3 1 C3 1.66 3 2.32 3 3 C-1.43076923 5.09230769 -1.43076923 5.09230769 -4.3125 4.625 C-4.869375 4.41875 -5.42625 4.2125 -6 4 C-4.03617993 2.49440461 -2.21736634 1.10868317 0 0 Z " fill="#F3F3F3" transform="translate(390,226)"/>
<path d="M0 0 C2.97 0.495 2.97 0.495 6 1 C5.01 2.485 5.01 2.485 4 4 C2.35 3.67 0.7 3.34 -1 3 C-0.67 2.01 -0.34 1.02 0 0 Z " fill="#F0F0F0" transform="translate(556,195)"/>
<path d="M0 0 C0.33 0.99 0.66 1.98 1 3 C-1.62198774 5.15377564 -3.64404172 6.40072174 -7 7 C-4.78071806 4.09197539 -3.07030857 2.04687238 0 0 Z " fill="#191919" transform="translate(428,400)"/>
<path d="M0 0 C0.33 0.66 0.66 1.32 1 2 C-0.27984466 5.83953399 -2.81501296 7.65316744 -6 10 C-6.66 9.67 -7.32 9.34 -8 9 C-5.36 6.03 -2.72 3.06 0 0 Z " fill="#DBDBDB" transform="translate(479,300)"/>
<path d="M0 0 C-2.38573379 1.89213369 -4.07175348 3.02391783 -7 4 C-7.66 3.34 -8.32 2.68 -9 2 C-3.375 -1.125 -3.375 -1.125 0 0 Z " fill="#121212" transform="translate(359,241)"/>
<path d="M0 0 C-1.32 0.33 -2.64 0.66 -4 1 C-4 1.66 -4 2.32 -4 3 C-5.98 3.33 -7.96 3.66 -10 4 C-6.87839899 0.56623888 -4.64008112 -1.54669371 0 0 Z " fill="#2D2D2D" transform="translate(362,494)"/>
<path d="M0 0 C-0.33 0.66 -0.66 1.32 -1 2 C-1.66 2 -2.32 2 -3 2 C-3.33 2.66 -3.66 3.32 -4 4 C-6.31 3.34 -8.62 2.68 -11 2 C-11 1.67 -11 1.34 -11 1 C-9.5437328 0.63743142 -8.08488815 0.28520207 -6.625 -0.0625 C-5.40683594 -0.35833984 -5.40683594 -0.35833984 -4.1640625 -0.66015625 C-2 -1 -2 -1 0 0 Z " fill="#303030" transform="translate(350,459)"/>
<path d="M0 0 C0.66 0.33 1.32 0.66 2 1 C0.86280581 4.41158256 -0.04342944 5.11854601 -3 7 C-3.66 7 -4.32 7 -5 7 C-3.70700306 4.11562221 -2.34058637 2.12780579 0 0 Z " fill="#191919" transform="translate(221,301)"/>
<path d="M0 0 C0.99 0.33 1.98 0.66 3 1 C2.67 2.65 2.34 4.3 2 6 C1.01 5.34 0.02 4.68 -1 4 C-1.66 3.67 -2.32 3.34 -3 3 C-2.01 2.01 -1.02 1.02 0 0 Z " fill="#E5E5E5" transform="translate(483,296)"/>
<path d="M0 0 C2.475 0.99 2.475 0.99 5 2 C5 3.65 5 5.3 5 7 C3.02 5.35 1.04 3.7 -1 2 C-0.67 1.34 -0.34 0.68 0 0 Z " fill="#0E0E0E" transform="translate(163,497)"/>
<path d="M0 0 C0.66 0.33 1.32 0.66 2 1 C0 4 0 4 -3 6 C-3.99 5.67 -4.98 5.34 -6 5 C-4.02 3.35 -2.04 1.7 0 0 Z " fill="#181818" transform="translate(441,439)"/>
<path d="M0 0 C0.99 0.66 1.98 1.32 3 2 C2.67 2.99 2.34 3.98 2 5 C0.68 4.67 -0.64 4.34 -2 4 C-1.34 2.68 -0.68 1.36 0 0 Z " fill="#050505" transform="translate(473,418)"/>
<path d="M0 0 C0.66 0 1.32 0 2 0 C1.6875 1.875 1.6875 1.875 1 4 C0.01 4.66 -0.98 5.32 -2 6 C-2 2 -2 2 0 0 Z " fill="#E0E0E0" transform="translate(461,364)"/>
<path d="M0 0 C2.125 0.375 2.125 0.375 4 1 C2.68 2.32 1.36 3.64 0 5 C-0.66 4.01 -1.32 3.02 -2 2 C-1.34 1.34 -0.68 0.68 0 0 Z " fill="#212121" transform="translate(418,362)"/>
<path d="M0 0 C0.66 1.32 1.32 2.64 2 4 C0.68 4.99 -0.64 5.98 -2 7 C-2.66 6.67 -3.32 6.34 -4 6 C-2.68 4.02 -1.36 2.04 0 0 Z " fill="#212121" transform="translate(554,343)"/>
<path d="M0 0 C0.66 0.33 1.32 0.66 2 1 C0.68 2.65 -0.64 4.3 -2 6 C-2.99 5.67 -3.98 5.34 -5 5 C-3.35 3.35 -1.7 1.7 0 0 Z " fill="#E1E1E1" transform="translate(223,303)"/>
<path d="M0 0 C2.62187494 1.04874998 3.79371361 1.64931313 5.25 4.125 C5.4975 4.74375 5.745 5.3625 6 6 C5.34 6.66 4.68 7.32 4 8 C4 7.34 4 6.68 4 6 C3.34 6 2.68 6 2 6 C1.34 4.02 0.68 2.04 0 0 Z " fill="#ECECEC" transform="translate(559,215)"/>
<path d="M0 0 C2.475 0.495 2.475 0.495 5 1 C5 1.99 5 2.98 5 4 C3.68 4 2.36 4 1 4 C0.67 2.68 0.34 1.36 0 0 Z " fill="#E9E9E9" transform="translate(563,199)"/>
</svg>
